<svg preserveAspectRatio="none" width="100%" height="100%" overflow="visible" style="display: block;" viewBox="0 0 45 45" fill="none" xmlns="http://www.w3.org/2000/svg">
<g id="Icon">
<path id="Vector" d="M9.78125 14.9797C9.78125 14.3722 10.0226 13.7895 10.4522 13.3599C10.8818 12.9303 11.4645 12.6889 12.0721 12.6889H18.9445L21.2353 14.9797H32.6893C33.2969 14.9797 33.8795 15.2211 34.3092 15.6507C34.7388 16.0803 34.9801 16.663 34.9801 17.2705V28.7246C34.9801 29.3321 34.7388 29.9148 34.3092 30.3444C33.8795 30.774 33.2969 31.0154 32.6893 31.0154H12.0721C11.4645 31.0154 10.8818 30.774 10.4522 30.3444C10.0226 29.9148 9.78125 29.3321 9.78125 28.7246V14.9797Z" stroke="var(--stroke-0, #1D1717)" stroke-width="2" stroke-linecap="round" stroke-linejoin="round"/>
<path id="Vector_2" d="M30.3985 34.108C34.3206 34.108 37.5 30.9285 37.5 27.0065C37.5 23.0844 34.3206 19.905 30.3985 19.905C26.4765 19.905 23.297 23.0844 23.297 27.0065C23.297 30.9285 26.4765 34.108 30.3985 34.108Z" fill="var(--fill-0, #D64835)"/>
<path id="Vector_3" d="M30.3985 23.5702V30.4427M33.8347 27.0065L30.3985 30.4427L26.9623 27.0065" stroke="var(--stroke-0, white)" stroke-width="2" stroke-linecap="round" stroke-linejoin="round"/>
</g>
</svg>
