<svg preserveAspectRatio="none" width="100%" height="100%" overflow="visible" style="display: block;" viewBox="0 0 22 22" fill="none" xmlns="http://www.w3.org/2000/svg">
<g id="22icon" opacity="0.99">
<path id="Vector" d="M16.5 6.96667C17.8163 6.96667 18.8833 5.89961 18.8833 4.58333C18.8833 3.26705 17.8163 2.2 16.5 2.2C15.1837 2.2 14.1167 3.26705 14.1167 4.58333C14.1167 5.89961 15.1837 6.96667 16.5 6.96667Z" stroke="var(--stroke-0, #666666)" stroke-width="2" stroke-linecap="round" stroke-linejoin="round"/>
<path id="Vector_2" d="M5.5 13.3833C6.81628 13.3833 7.88333 12.3163 7.88333 11C7.88333 9.68372 6.81628 8.61667 5.5 8.61667C4.18372 8.61667 3.11667 9.68372 3.11667 11C3.11667 12.3163 4.18372 13.3833 5.5 13.3833Z" stroke="var(--stroke-0, #666666)" stroke-width="2" stroke-linecap="round" stroke-linejoin="round"/>
<path id="Vector_3" d="M16.5 19.8C17.8163 19.8 18.8833 18.7329 18.8833 17.4167C18.8833 16.1004 17.8163 15.0333 16.5 15.0333C15.1837 15.0333 14.1167 16.1004 14.1167 17.4167C14.1167 18.7329 15.1837 19.8 16.5 19.8Z" stroke="var(--stroke-0, #666666)" stroke-width="2" stroke-linecap="round" stroke-linejoin="round"/>
<path id="Vector_4" d="M7.60833 12.2833L14.3917 16.1333" stroke="var(--stroke-0, #666666)" stroke-width="2" stroke-linecap="round" stroke-linejoin="round"/>
<path id="Vector_5" d="M14.3917 5.86667L7.60833 9.71667" stroke="var(--stroke-0, #666666)" stroke-width="2" stroke-linecap="round" stroke-linejoin="round"/>
</g>
</svg>
