<svg preserveAspectRatio="none" width="100%" height="100%" overflow="visible" style="display: block;" viewBox="0 0 45 45" fill="none" xmlns="http://www.w3.org/2000/svg">
<g id="Icon">
<path id="Vector" d="M13.577 9.5H25.2418L31.7222 14.8191V32.9043C31.7222 33.3275 31.5174 33.7334 31.1528 34.0326C30.7882 34.3319 30.2937 34.5 29.7781 34.5H14.225C13.7094 34.5 13.2149 34.3319 12.8503 34.0326C12.4857 33.7334 12.2809 33.3275 12.2809 32.9043V11.0957C12.257 10.7504 12.3705 10.408 12.6043 10.1202C12.8381 9.83242 13.1794 9.61475 13.577 9.5Z" stroke="var(--stroke-0, #1D1717)" stroke-width="2" stroke-linecap="round" stroke-linejoin="round"/>
<path id="Vector_2" d="M25.6802 9.77488V15.0355H30.9409" stroke="var(--stroke-0, #1D1717)" stroke-width="2" stroke-linecap="round" stroke-linejoin="round"/>
<path id="Vector_3" d="M23.5659 31.5229L24.7022 27.5459L32.6563 19.5918L35.4971 22.4325L27.543 30.3866L23.5659 31.5229Z" fill="var(--fill-0, #D64835)"/>
</g>
</svg>
