<svg preserveAspectRatio="none" width="100%" height="100%" overflow="visible" style="display: block;" viewBox="0 0 22 22" fill="none" xmlns="http://www.w3.org/2000/svg">
<g id="Icon">
<path id="Vector" d="M21.0833 6.875C20.9571 6.41466 20.7133 5.9951 20.3757 5.65758C20.0382 5.32006 19.6187 5.07621 19.1583 4.95C17.4167 4.58333 11 4.58333 11 4.58333C11 4.58333 4.58333 4.58333 2.84167 4.95C2.38133 5.07621 1.96177 5.32006 1.62425 5.65758C1.28673 5.9951 1.04288 6.41466 0.916666 6.875C0.694282 8.23925 0.571734 9.61791 0.55 11C0.571734 12.3821 0.694282 13.7607 0.916666 15.125C1.04288 15.5853 1.28673 16.0049 1.62425 16.3424C1.96177 16.6799 2.38133 16.9238 2.84167 17.05C4.58333 17.4167 11 17.4167 11 17.4167C11 17.4167 17.4167 17.4167 19.1583 17.05C19.6187 16.9238 20.0382 16.6799 20.3757 16.3424C20.7133 16.0049 20.9571 15.5853 21.0833 15.125C21.3057 13.7607 21.4283 12.3821 21.45 11C21.4283 9.61791 21.3057 8.23925 21.0833 6.875ZM8.98333 14.025V7.975L14.2083 11L8.98333 14.025Z" fill="var(--fill-0, #C4C4C4)"/>
</g>
</svg>
