<svg preserveAspectRatio="none" width="100%" height="100%" overflow="visible" style="display: block;" viewBox="0 0 45 45" fill="none" xmlns="http://www.w3.org/2000/svg">
<g id="Icon">
<path id="Vector" d="M10.7891 24.9598V22.6176C10.7891 19.5115 12.023 16.5327 14.2193 14.3364C16.4156 12.1401 19.3944 10.9063 22.5004 10.9062C25.6065 10.9062 28.5853 12.1401 30.7816 14.3364C32.9779 16.5327 34.2117 19.5115 34.2117 22.6176V24.9598" stroke="var(--stroke-0, #1D1717)" stroke-width="2" stroke-linecap="round" stroke-linejoin="round"/>
<path id="Vector_2" d="M12.5454 24.3743H10.7887C9.1717 24.3743 7.86087 25.6851 7.86087 27.3021V32.5722C7.86087 34.1892 9.1717 35.5 10.7887 35.5H12.5454C14.1624 35.5 15.4732 34.1892 15.4732 32.5722V27.3021C15.4732 25.6851 14.1624 24.3743 12.5454 24.3743Z" fill="var(--fill-0, #D64835)"/>
<path id="Vector_3" d="M34.2115 24.3743H32.4548C30.8378 24.3743 29.527 25.6851 29.527 27.3021V32.5722C29.527 34.1892 30.8378 35.5 32.4548 35.5H34.2115C35.8285 35.5 37.1393 34.1892 37.1393 32.5722V27.3021C37.1393 25.6851 35.8285 24.3743 34.2115 24.3743Z" fill="var(--fill-0, #D64835)"/>
</g>
</svg>
