<svg preserveAspectRatio="none" width="100%" height="100%" overflow="visible" style="display: block;" viewBox="0 0 28 28" fill="none" xmlns="http://www.w3.org/2000/svg">
<g id="Frame 86">
<path id="Vector" d="M2 9H26L24.7475 23.1888C24.6798 23.9568 24.3359 24.6709 23.7833 25.191C23.2307 25.7112 22.5094 25.9997 21.761 26H6.239C5.49056 25.9997 4.76925 25.7112 4.2167 25.191C3.66414 24.6709 3.32023 23.9568 3.2525 23.1888L2 9Z" stroke="var(--stroke-0, #1D1717)" stroke-width="2" stroke-linejoin="round"/>
<path id="Vector_2" d="M8 12V7.71429C8 6.19876 8.63214 4.74531 9.75736 3.67368C10.8826 2.60204 12.4087 2 14 2C15.5913 2 17.1174 2.60204 18.2426 3.67368C19.3679 4.74531 20 6.19876 20 7.71429V12" stroke="var(--stroke-0, #1D1717)" stroke-width="2" stroke-linecap="round"/>
</g>
</svg>
