<svg preserveAspectRatio="none" width="100%" height="100%" overflow="visible" style="display: block;" viewBox="0 0 28 28" fill="none" xmlns="http://www.w3.org/2000/svg">
<g id="Frame 87">
<path id="Vector" d="M5.25 12.4167C5.25 10.096 6.17187 7.87045 7.81282 6.2295C9.45376 4.58856 11.6794 3.66669 14 3.66669C16.3206 3.66669 18.5462 4.58856 20.1872 6.2295C21.8281 7.87045 22.75 10.096 22.75 12.4167" stroke="var(--stroke-0, #1D1717)" stroke-width="2" stroke-linecap="round" stroke-linejoin="round"/>
<path id="Vector_2" d="M7.46666 15.1C7.46666 13.9402 6.52646 13 5.36666 13C4.20686 13 3.26666 13.9402 3.26666 15.1V18.3667C3.26666 19.5265 4.20686 20.4667 5.36666 20.4667C6.52646 20.4667 7.46666 19.5265 7.46666 18.3667V15.1Z" stroke="var(--stroke-0, #1D1717)" stroke-width="2" stroke-linecap="round" stroke-linejoin="round"/>
<path id="Vector_3" d="M24.7333 15.1C24.7333 13.9402 23.7931 13 22.6333 13C21.4735 13 20.5333 13.9402 20.5333 15.1V18.3667C20.5333 19.5265 21.4735 20.4667 22.6333 20.4667C23.7931 20.4667 24.7333 19.5265 24.7333 18.3667V15.1Z" stroke="var(--stroke-0, #1D1717)" stroke-width="2" stroke-linecap="round" stroke-linejoin="round"/>
<path id="Vector_4" d="M22.6333 20.4667V21.2833C22.6333 22.1497 22.2892 22.9806 21.6765 23.5932C21.0639 24.2058 20.233 24.55 19.3667 24.55H17" stroke="var(--stroke-0, #1D1717)" stroke-width="2" stroke-linecap="round" stroke-linejoin="round"/>
<path id="Vector_5" d="M15.4 25.95C16.1732 25.95 16.8 25.3232 16.8 24.55C16.8 23.7768 16.1732 23.15 15.4 23.15C14.6268 23.15 14 23.7768 14 24.55C14 25.3232 14.6268 25.95 15.4 25.95Z" stroke="var(--stroke-0, #1D1717)" stroke-width="2" stroke-linecap="round" stroke-linejoin="round"/>
</g>
</svg>
