<svg preserveAspectRatio="none" width="100%" height="100%" overflow="visible" style="display: block;" viewBox="0 0 37 12" fill="none" xmlns="http://www.w3.org/2000/svg">
<g id="Layer_1" clip-path="url(#clip0_0_58)">
<path id="Vector" d="M21.3103 4.10275H25.9579V3.08991H21.3103C21.115 3.08991 20.9522 2.96147 20.9486 2.81101V0H19.8346V2.81101C19.8346 3.51927 20.4965 4.09908 21.3066 4.09908" fill="var(--fill-0, #1E1718)"/>
<path id="Vector_2" d="M6.49584 0.26789C5.99672 0.26789 5.59525 0.678899 5.59525 1.18165V7.30642L1.67463 0.693578C1.41783 0.256881 0.864462 0.117431 0.437678 0.377982C0.010894 0.638532 -0.126545 1.2 0.130249 1.63303L5.66397 10.9761C5.80865 11.2183 6.04736 11.3651 6.30415 11.4055C6.315 11.4055 6.32947 11.4055 6.34032 11.4128C6.36202 11.4128 6.38372 11.4202 6.40542 11.4202C6.43435 11.4202 6.46329 11.4312 6.49584 11.4312C6.99496 11.4312 7.39643 11.0202 7.39643 10.5174V1.18165C7.39643 0.675229 6.99134 0.26789 6.49584 0.26789Z" fill="var(--fill-0, #E73829)"/>
<path id="Vector_3" d="M0.0361681 11.4275H1.84096V5.55229L0.0361681 2.51009V11.4275Z" fill="var(--fill-0, #E73829)"/>
<path id="Vector_4" d="M11.9065 4.93211V6.7633H14.7566C15.2557 6.7633 15.6608 6.35229 15.6608 5.84954C15.6608 5.34679 15.2557 4.93211 14.7566 4.93211H11.9065Z" fill="var(--fill-0, #E73829)"/>
<path id="Vector_5" d="M15.3353 9.6H11.9065V11.4312H15.3353C15.8344 11.4312 16.2359 11.0202 16.2359 10.5174C16.2359 10.0147 15.8344 9.6 15.3353 9.6Z" fill="var(--fill-0, #E73829)"/>
<path id="Vector_6" d="M15.3353 2.07706C15.8344 2.07706 16.2359 1.66606 16.2359 1.1633C16.2359 0.66055 15.8308 0.249541 15.3353 0.249541H11.9789C11.4544 0.249541 10.6949 0.359633 9.9824 1.18165C9.37478 1.88624 9.38201 2.86972 9.38201 2.86972V11.4312H11.1868V3.06422C11.1868 2.81835 11.3062 2.54312 11.4508 2.4C11.7185 2.12844 11.9825 2.07706 11.9825 2.07706H15.3389H15.3353Z" fill="var(--fill-0, #E73829)"/>
<path id="Vector_7" d="M22.9017 10.9872C21.9324 10.9872 21.1403 10.2899 21.1367 9.43486C21.1367 8.57982 21.9287 7.88624 22.9017 7.88624C23.871 7.88624 24.6631 8.58349 24.6631 9.43486C24.6631 10.2899 23.871 10.9835 22.9017 10.9872ZM22.9017 6.87339C21.3392 6.87339 20.0697 8.02569 20.0697 9.43853C20.0697 10.8514 21.3428 12 22.9017 12C24.4605 12 25.7336 10.8514 25.7336 9.43486C25.7336 8.01835 24.4641 6.87339 22.9017 6.87339Z" fill="var(--fill-0, #1E1718)"/>
<path id="Vector_8" d="M33.5242 7.08991H31.9148V6.22752H33.5242V7.08991ZM37 6.22752V5.21468H28.3377V6.22752H30.7972V7.08991H29.2672V8.10275H34.9203V8.88073H29.3143V10.5284C29.3143 11.2404 29.9761 11.8202 30.7899 11.8202H36.056V10.8073H30.7899C30.5946 10.8073 30.4282 10.6789 30.4282 10.5284V9.89358H36.0343V7.08991H34.6382V6.22752H37Z" fill="var(--fill-0, #1E1718)"/>
<path id="Vector_9" d="M27.231 5.18532H18.5687V6.20917H27.231V5.18532Z" fill="var(--fill-0, #1E1718)"/>
<path id="Vector_10" d="M31.0431 4.66422H35.7667V3.65138H31.0431C30.8478 3.65138 30.685 3.52294 30.6814 3.37248V2.78899H35.763V0H29.5674V1.01284H34.6491V1.77615H29.5674V3.37248C29.5674 4.08073 30.2293 4.66055 31.0395 4.66422" fill="var(--fill-0, #1E1718)"/>
</g>
<defs>
<clipPath id="clip0_0_58">
<rect width="37" height="12" fill="white"/>
</clipPath>
</defs>
</svg>
