<svg preserveAspectRatio="none" width="100%" height="100%" overflow="visible" style="display: block;" viewBox="0 0 106 12" fill="none" xmlns="http://www.w3.org/2000/svg">
<g id="Layer_1" clip-path="url(#clip0_0_37)">
<path id="Vector" d="M33.5701 8.77244C33.5701 9.77453 32.8074 10.5595 31.8938 10.5595H29.879C29.7608 10.5595 29.7077 10.5052 29.7077 10.3758V6.80167C29.7077 6.67223 29.7608 6.61795 29.879 6.61795H31.8938C32.8237 6.61795 33.5701 7.41962 33.5701 8.38831V8.77244ZM33.5701 3.55324C33.5701 4.55532 32.8074 5.35699 31.8938 5.35699H29.879C29.7608 5.35699 29.7077 5.30271 29.7077 5.17328V1.76618C29.7077 1.63674 29.7608 1.58246 29.879 1.58246H31.8938C32.8237 1.58246 33.5701 2.40501 33.5701 3.36952V3.55324ZM34.8915 8.6096V8.33403C34.8915 7.4405 34.3001 6.5261 33.7251 6.14614C33.5905 6.05428 33.5905 5.92902 33.7414 5.83716C34.3654 5.43633 34.8915 4.45094 34.8915 3.74113V3.55741C34.8915 1.58664 33.725 0.325678 31.8938 0.325678H28.5576C28.4393 0.325678 28.3904 0.379958 28.3904 0.509395V11.6367C28.3904 11.7662 28.4393 11.8205 28.5576 11.8205H31.8938C33.721 11.8205 34.8915 10.5804 34.8915 8.6096Z" fill="var(--fill-0, #1E1718)"/>
<path id="Vector_2" d="M42.8486 11.6367V3.86221C42.8486 3.73278 42.7997 3.6785 42.6773 3.6785H41.6944C41.5761 3.6785 41.5272 3.73278 41.5272 3.86221V8.76827C41.5272 9.77035 40.7645 10.5553 39.8509 10.5553C38.9374 10.5553 38.191 9.73278 38.191 8.76827V3.86221C38.191 3.73278 38.1421 3.6785 38.0197 3.6785H37.0205C36.9022 3.6785 36.8492 3.73278 36.8492 3.86221V8.76827C36.8492 10.5553 38.0156 11.8163 39.8469 11.8163C40.373 11.8163 40.9481 11.5783 41.3885 10.9937C41.5068 10.8267 41.6944 10.9186 41.6944 11.119V11.6284C41.6944 11.7578 41.7434 11.8121 41.8616 11.8121H42.6733C42.7915 11.8121 42.8446 11.7578 42.8446 11.6284" fill="var(--fill-0, #1E1718)"/>
<path id="Vector_3" d="M46.3235 11.6367V3.86221C46.3235 3.73695 46.2746 3.6785 46.1563 3.6785H45.1571C45.0388 3.6785 44.9898 3.73278 44.9898 3.86221V11.6326C44.9898 11.762 45.0388 11.8163 45.1571 11.8163H46.1563C46.2746 11.8163 46.3235 11.762 46.3235 11.6326M46.4907 1.03549C46.4907 0.526096 46.1196 0.141962 45.6424 0.141962C45.1652 0.141962 44.8145 0.542798 44.8145 1.03549C44.8145 1.52818 45.1693 1.94572 45.6424 1.94572C46.1155 1.94572 46.4907 1.52401 46.4907 1.03549Z" fill="var(--fill-0, #1E1718)"/>
<path id="Vector_4" d="M49.7943 11.6367V0.509395C49.7943 0.379958 49.7454 0.325678 49.623 0.325678H48.6238C48.5055 0.325678 48.4525 0.379958 48.4525 0.509395V11.6367C48.4525 11.7662 48.5014 11.8205 48.6238 11.8205H49.623C49.7413 11.8205 49.7943 11.7662 49.7943 11.6367Z" fill="var(--fill-0, #1E1718)"/>
<path id="Vector_5" d="M56.4137 8.77244C56.4137 9.75783 55.651 10.5595 54.7538 10.5595C53.8565 10.5595 53.0938 9.73695 53.0938 8.77244V6.70981C53.0938 5.72443 53.8402 4.92276 54.7538 4.92276C55.6673 4.92276 56.4137 5.7453 56.4137 6.70981V8.77244ZM57.7514 11.6367V0.509395C57.7514 0.379958 57.7025 0.325678 57.5842 0.325678H56.585C56.4667 0.325678 56.4137 0.379958 56.4137 0.509395V4.33821C56.4137 4.55532 56.2424 4.63048 56.1241 4.46764C55.6836 3.90397 55.0923 3.68267 54.5865 3.68267C52.9959 3.68267 51.7601 4.92276 51.7601 6.70981V8.77244C51.7601 10.5595 52.9266 11.8205 54.7578 11.8205C55.182 11.8205 55.7897 11.5825 56.2995 10.9979C56.4341 10.8518 56.6054 10.9228 56.6054 11.1273V11.6367C56.6054 11.762 56.6543 11.8205 56.7726 11.8205H57.5842C57.7025 11.8205 57.7514 11.7662 57.7514 11.6367Z" fill="var(--fill-0, #1E1718)"/>
<path id="Vector_6" d="M67.5561 9.48225C67.2176 10.2672 66.508 10.739 65.8962 10.739H65.3741C64.4442 10.739 63.7142 9.91649 63.7142 8.95198V8.38831C63.7142 7.65762 64.1017 7.07307 64.6808 6.74739C64.7297 6.72651 64.7991 6.72651 64.848 6.76409C65.2722 7.05637 65.6596 7.27349 66.0145 7.56576C66.5202 7.98747 66.9974 8.60543 67.5357 9.31942C67.5684 9.3737 67.5684 9.44468 67.5521 9.48225M67.0504 3.55324C67.0504 4.5929 66.1368 5.35699 65.3415 5.41545C65.2722 5.41545 65.2232 5.36117 65.1539 5.32359C64.3749 4.75992 63.7142 4.10021 63.7142 3.18998C63.7142 2.18789 64.4606 1.40292 65.3741 1.40292C66.2877 1.40292 67.0504 2.20459 67.0504 3.18998V3.55324ZM71.4837 11.7996V10.7056C71.4837 10.6138 71.4511 10.5428 71.3655 10.5219C70.6721 10.3382 69.9421 9.86639 69.265 9.1357C69.2161 9.08142 69.1794 9.00626 69.1998 8.91441L69.3017 8.56785C69.6076 7.54489 70.0644 6.78079 70.978 6.78079H71.3165C71.4348 6.78079 71.4878 6.72651 71.4878 6.59708V5.53653C71.4878 5.4071 71.4389 5.35282 71.3165 5.35282H71.1126C69.7096 5.35282 68.69 6.08351 68.2862 7.52401C68.2372 7.70773 68.1149 7.72443 67.9966 7.59499C67.4379 6.97286 67.132 6.66388 66.7445 6.35491C66.5732 6.22547 66.6426 6.06263 66.7771 6.00835C67.862 5.55324 68.3678 4.43841 68.3678 3.7286V3.36117C68.3678 1.3904 67.2013 0.133612 65.3701 0.133612C63.5388 0.133612 62.3561 1.42798 62.3724 3.39875C62.3887 4.47599 62.8455 5.14823 63.6082 5.84551C63.7264 5.95407 63.7101 6.08351 63.5755 6.15449C62.8822 6.5762 62.3724 7.59499 62.3724 8.32568V8.80167C62.3724 10.7724 63.5388 11.9958 65.3701 11.9958H65.8921C67.2135 11.9958 67.9558 11.4322 68.4493 10.6472C68.5187 10.5386 68.5839 10.5177 68.6859 10.6096C69.0244 10.9562 69.3955 11.2484 69.8034 11.4864C70.2439 11.7411 70.717 11.9081 71.292 11.9791C71.4103 11.9958 71.4796 11.9248 71.4796 11.7954" fill="var(--fill-0, #1E1718)"/>
<g id="Group">
<path id="Vector_7" d="M82.1653 8.95616V6.36743C82.1653 6.238 82.1163 6.18372 81.994 6.18372H78.931C78.8128 6.18372 78.7598 6.238 78.7598 6.36743V7.26096C78.7598 7.3904 78.8128 7.44468 78.931 7.44468H80.6562C80.7745 7.44468 80.8235 7.49896 80.8235 7.62839V8.96033C80.8235 9.94572 80.0608 10.7474 79.1635 10.7474H78.6374C77.7075 10.7474 76.9775 9.92484 76.9775 8.96033V3.18998C76.9775 2.18789 77.7238 1.40292 78.6374 1.40292H79.4653C80.0241 1.40292 80.6155 1.74948 80.9703 2.40501C81.0192 2.49687 81.0886 2.53445 81.1742 2.48017L82.0715 2.00418C82.1734 1.9499 82.2061 1.85804 82.1571 1.74948C81.9858 1.41962 81.786 1.11065 81.4964 0.85595C81.0396 0.438413 80.3952 0.146138 79.4653 0.146138H78.6374C76.8102 0.146138 75.6397 1.40292 75.6397 3.19415V8.96033C75.6397 10.7683 76.8062 12.0084 78.6374 12.0084H79.1635C80.9907 12.0084 82.1612 10.7516 82.1612 8.96033" fill="var(--fill-0, #1E1718)"/>
<path id="Vector_8" d="M87.6753 5.03132V3.88309C87.6753 3.75783 87.6427 3.68267 87.5244 3.68267H87.1533C86.6272 3.68267 86.0521 4.06681 85.6116 4.73904C85.4933 4.90188 85.3221 4.8142 85.3221 4.6096V3.86221C85.3221 3.73695 85.2731 3.6785 85.1548 3.6785H84.3269C84.2086 3.6785 84.1556 3.73278 84.1556 3.86221V11.6326C84.1556 11.762 84.2086 11.8163 84.3269 11.8163H85.3261C85.4444 11.8163 85.4974 11.762 85.4974 11.6326V6.88935C85.4974 5.81211 86.2234 5.13987 87.1574 5.13987C87.2593 5.13987 87.3776 5.15658 87.4633 5.19415C87.5978 5.24843 87.6835 5.17745 87.6835 5.03132" fill="var(--fill-0, #1E1718)"/>
<path id="Vector_9" d="M93.6014 8.97286C93.6014 9.95825 92.9937 10.7599 91.9414 10.7599C90.9789 10.7599 90.2815 9.99165 90.2815 9.06472V6.53027C90.2815 5.54489 90.8892 4.74321 91.9414 4.74321C92.908 4.74321 93.6014 5.51148 93.6014 6.43841V8.97286ZM94.9391 8.97286V6.53027C94.9391 4.78079 93.736 3.50313 91.9414 3.50313C90.1469 3.50313 88.9437 4.79749 88.9437 6.53027V8.97286C88.9437 10.7223 90.1469 12 91.9414 12C93.736 12 94.9391 10.7056 94.9391 8.97286Z" fill="var(--fill-0, #1E1718)"/>
<path id="Vector_10" d="M105.988 3.92067C106.02 3.77453 105.971 3.68267 105.816 3.68267H104.748C104.666 3.68267 104.597 3.72025 104.581 3.81211L103.447 8.53862C103.329 9.03132 103.263 9.56159 103.263 9.56159H103.214C103.214 9.56159 103.161 9.03131 103.027 8.5595L101.758 3.81628C101.742 3.72443 101.673 3.68685 101.587 3.68685H100.69C100.604 3.68685 100.539 3.72443 100.523 3.81628L99.2012 8.72234C99.0666 9.21503 99.0135 9.61587 99.0135 9.61587H98.9646C98.9646 9.61587 98.9116 9.21503 98.7974 8.72234L97.6473 3.81628C97.6309 3.72443 97.5616 3.68685 97.476 3.68685H96.3911C96.2402 3.68685 96.1872 3.77871 96.2198 3.92484L98.4222 11.6952C98.4385 11.7871 98.5078 11.8246 98.5894 11.8246H99.3521C99.4377 11.8246 99.503 11.7871 99.5234 11.6952L100.894 6.55115C101.028 6.05845 101.081 5.64092 101.081 5.64092H101.13C101.13 5.64092 101.163 6.06263 101.302 6.55115L102.688 11.6952C102.705 11.7871 102.774 11.8246 102.855 11.8246H103.618C103.704 11.8246 103.769 11.7871 103.789 11.6952L105.992 3.92484L105.988 3.92067Z" fill="var(--fill-0, #1E1718)"/>
</g>
<path id="Vector_11" d="M19.9805 11.8163H24.5811C25.0501 11.8163 25.4335 11.428 25.4335 10.9436C25.4335 10.4593 25.0501 10.071 24.5811 10.071H19.9805V11.8121V11.8163Z" fill="var(--fill-0, #1E1718)"/>
<g id="Group_2">
<path id="Vector_12" d="M16.0733 9.88727H12.4802V11.8246H16.0733C16.5954 11.8246 17.0195 11.3904 17.0195 10.856C17.0195 10.3215 16.5954 9.88727 16.0733 9.88727Z" fill="var(--fill-0, #E73829)"/>
<path id="Vector_13" d="M6.80699 0.0208768C6.28494 0.0208768 5.86078 0.455115 5.86078 0.989561V7.46555L1.75782 0.467641C1.48864 0.0125261 0.905412 -0.137787 0.456778 0.137787C0.0122222 0.413361 -0.134604 1.00626 0.134577 1.46555L5.93419 11.3445C6.0851 11.6033 6.33796 11.7578 6.60714 11.7996C6.61938 11.7996 6.63569 11.7996 6.64793 11.8038C6.6724 11.8038 6.69279 11.8079 6.71318 11.8121C6.74581 11.8121 6.77436 11.8205 6.80699 11.8205C7.32904 11.8205 7.7532 11.3862 7.7532 10.8518V0.985386C7.7532 0.450939 7.32904 0.0167015 6.80699 0.0167015" fill="var(--fill-0, #E73829)"/>
<path id="Vector_14" d="M0.0367064 11.8246H1.92913V5.61169L0.0367064 2.39248V11.8246Z" fill="var(--fill-0, #E73829)"/>
<path id="Vector_15" d="M12.4802 4.95198V6.88935H15.4697C15.9918 6.88935 16.4159 6.45511 16.4159 5.92067C16.4159 5.38622 15.9918 4.95198 15.4697 4.95198H12.4802Z" fill="var(--fill-0, #E73829)"/>
<path id="Vector_16" d="M16.0733 1.93319C16.5954 1.93319 17.0195 1.49896 17.0195 0.964509C17.0195 0.430063 16.5954 0 16.0733 0H12.5536C12.0071 0 11.2077 0.11691 10.4613 0.985386C9.82101 1.73278 9.82916 2.76827 9.82916 2.76827V11.8205H11.7216V2.98121C11.7216 2.72234 11.848 2.43006 11.9989 2.27557C12.2803 1.98747 12.5536 1.93319 12.5536 1.93319H16.0733Z" fill="var(--fill-0, #E73829)"/>
</g>
</g>
<defs>
<clipPath id="clip0_0_37">
<rect width="106" height="12" fill="white"/>
</clipPath>
</defs>
</svg>
