<svg xmlns="http://www.w3.org/2000/svg" width="32" height="32" viewBox="0 0 32 32">
  <g id="그룹_23333" data-name="그룹 23333" transform="translate(-1556.022 -693.022)">
    <rect id="사각형_72660" data-name="사각형 72660" width="32" height="32" transform="translate(1556.022 693.022)" fill="none"/>
    <g id="그룹_810" data-name="그룹 810" transform="translate(1557.022 695.022)">
      <path id="패스_854" data-name="패스 854" d="M230.51,298.485h20.346a2.738,2.738,0,0,1,2.738,2.738h0v2a.371.371,0,0,1-.369.37H242.052" transform="translate(-223.6 -297.776)" fill="#fff" stroke="#000" stroke-miterlimit="10" stroke-width="1.2"/>
      <path id="패스_855" data-name="패스 855" d="M252.144,297.956" transform="translate(-228.744 -297.956)" fill="#fff" stroke="#000" stroke-miterlimit="10" stroke-width="1.2"/>
      <path id="패스_856" data-name="패스 856" d="M249.563,298.485H229.239a1.967,1.967,0,0,0-1.918,2.012h0v24.25a1.967,1.967,0,0,0,1.918,2.012H246.2a2.262,2.262,0,0,0,1.92-2.317V300.97" transform="translate(-222.837 -297.776)" fill="#fff" stroke="#000" stroke-miterlimit="10" stroke-width="1.2"/>
      <path id="패스_858" data-name="패스 858" d="M253.182,330.144a2.364,2.364,0,0,1-4.716.339c-.008-.113-.008-1.577,0-1.69" transform="translate(-227.868 -303.915)" fill="#fff" stroke="#000" stroke-linecap="round" stroke-miterlimit="10" stroke-width="1.2"/>
      <line id="선_138" data-name="선 138" x1="6" transform="translate(8 10)" fill="none" stroke="#000" stroke-linecap="round" stroke-miterlimit="10" stroke-width="1.2"/>
      <line id="선_139" data-name="선 139" x1="6" transform="translate(8 14)" fill="none" stroke="#000" stroke-linecap="round" stroke-miterlimit="10" stroke-width="1.2"/>
      <path id="패스_859" data-name="패스 859" d="M254.666,301.038a2.3,2.3,0,0,1,2.171-2.541,2.345,2.345,0,0,1,2.54,2.171c0,.123.009.721,0,.844" transform="translate(-229.382 -297.778)" fill="#fff" stroke="#000" stroke-linecap="round" stroke-miterlimit="10" stroke-width="1.2"/>
      <line id="선_138-2" data-name="선 138" x1="9" transform="translate(8 6)" fill="none" stroke="#000" stroke-linecap="round" stroke-miterlimit="10" stroke-width="1.2"/>
      <line id="선_138-3" data-name="선 138" x1="9" transform="translate(8 18)" fill="none" stroke="#000" stroke-linecap="round" stroke-miterlimit="10" stroke-width="1.2"/>
      <path id="패스_857" data-name="패스 857" d="M243.738,332.559H223.906a2.783,2.783,0,0,1-2.69-2.866h0V327.6a.374.374,0,0,1,.364-.386h19.643a.441.441,0,0,1,.436.386,6.486,6.486,0,0,0,.215,3.083A4.258,4.258,0,0,0,243.738,332.559Z" transform="translate(-220.175 -302.962)" fill="#e83828"/>
    </g>
  </g>
</svg>
